<svg width="5040" height="365" viewBox="0 0 5040 365" fill="none" xmlns="http://www.w3.org/2000/svg">
<path d="M4668.92 152.926L4698.22 137.552C4727.03 122.43 4759.08 114.529 4791.63 114.529H4982.95C5014.38 114.529 5039.86 89.0521 5039.86 57.6246C5039.86 26.1971 5016.5 0.720093 4985.07 0.720093H2.89108C2.12069 0.720093 1.58491 3.52679 1.23386 8.33045C-3.09602 67.5788 49.7088 114.529 109.115 114.529H257.668C290.68 114.529 323.078 123.459 351.429 140.373L387.409 161.839C436.519 191.309 506.002 258.825 553.414 307.768C587.639 343.099 634.352 364.125 683.541 364.125H4344.65C4384.83 364.125 4423.77 350.136 4454.76 324.558L4637.15 174.047C4646.98 165.931 4657.63 158.852 4668.92 152.926Z" fill="white"/>
</svg>
